<svg width="14" height="16" fill="none" xmlns="http://www.w3.org/2000/svg"><path d="M3.66 4.75h.5V3.714a2.714 2.714 0 115.43 0V4.75h1.919a.84.84 0 01.835.752h0l.902 8.571a.838.838 0 01-.835.927h0H1.339h0a.84.84 0 01-.834-.927s0 0 0 0l.902-8.571s0 0 0 0 0 0 0 0a.84.84 0 01.835-.752H3.66zm.572-.5v.5h5.286V3.714c0-.7-.278-1.373-.774-1.869l-.338.339.338-.339a2.643 2.643 0 00-4.512 1.87v.535zm1.482 4.376a1.643 1.643 0 01-.482-1.162V6.93a1.036 1.036 0 10-2.071 0v.535a3.714 3.714 0 007.428 0V6.93a1.035 1.035 0 10-2.071 0v.535a1.643 1.643 0 01-2.804 1.162z" stroke="#66676B"></path></svg>